<svg width="75" height="82" viewBox="0 0 75 82" fill="none" xmlns="http://www.w3.org/2000/svg">
<path d="M4.12485 19C3.07416 19 2.19281 18.648 1.48081 17.944C0.768808 17.24 0.414045 16.3698 0.416517 15.3333V4.33331C0.416517 3.29442 0.772517 2.42297 1.48452 1.71897C2.19652 1.01497 3.07663 0.664194 4.12485 0.666639H15.2498C16.3005 0.666639 17.1819 1.01864 17.8939 1.72264C18.6059 2.42664 18.9607 3.29686 18.9582 4.33331C18.9582 5.37219 18.6022 6.24364 17.8902 6.94764C17.1782 7.65164 16.2981 8.00242 15.2498 7.99997H7.83318V15.3333C7.83318 16.3722 7.47718 17.2436 6.76518 17.9476C6.05318 18.6516 5.17307 19.0024 4.12485 19ZM70.8748 19C69.8242 19 68.9428 18.648 68.2308 17.944C67.5188 17.24 67.164 16.3698 67.1665 15.3333V7.99997H59.7499C58.6992 7.99997 57.8178 7.64797 57.1058 6.94397C56.3938 6.23997 56.039 5.36975 56.0415 4.33331C56.0415 3.29442 56.3975 2.42297 57.1095 1.71897C57.8215 1.01497 58.7016 0.664194 59.7499 0.666639H70.8748C71.9255 0.666639 72.8069 1.01864 73.5189 1.72264C74.2309 2.42664 74.5857 3.29686 74.5832 4.33331V15.3333C74.5832 16.3722 74.2272 17.2436 73.5152 17.9476C72.8032 18.6516 71.9231 19.0024 70.8748 19ZM4.12485 81.3333C3.07416 81.3333 2.19281 80.9813 1.48081 80.2773C0.768808 79.5733 0.414045 78.7031 0.416517 77.6666V66.6666C0.416517 65.6278 0.772517 64.7563 1.48452 64.0523C2.19652 63.3483 3.07663 62.9975 4.12485 63C5.17554 63 6.05689 63.352 6.76889 64.056C7.48089 64.76 7.83566 65.6302 7.83318 66.6666V74H15.2498C16.3005 74 17.1819 74.352 17.8939 75.056C18.6059 75.76 18.9607 76.6302 18.9582 77.6666C18.9582 78.7055 18.6022 79.577 17.8902 80.281C17.1782 80.985 16.2981 81.3358 15.2498 81.3333H4.12485ZM59.7499 81.3333C58.6992 81.3333 57.8178 80.9813 57.1058 80.2773C56.3938 79.5733 56.039 78.7031 56.0415 77.6666C56.0415 76.6278 56.3975 75.7563 57.1095 75.0523C57.8215 74.3483 58.7016 73.9975 59.7499 74H67.1665V66.6666C67.1665 65.6278 67.5225 64.7563 68.2345 64.0523C68.9465 63.3483 69.8266 62.9975 70.8748 63C71.9255 63 72.8069 63.352 73.5189 64.056C74.2309 64.76 74.5857 65.6302 74.5832 66.6666V77.6666C74.5832 78.7055 74.2272 79.577 73.5152 80.281C72.8032 80.985 71.9231 81.3358 70.8748 81.3333H59.7499ZM18.9582 70.3333C16.9186 70.3333 15.172 69.6146 13.7183 68.1773C12.2646 66.74 11.539 65.0142 11.5415 63V19C11.5415 16.9833 12.2683 15.2563 13.722 13.819C15.1757 12.3816 16.9211 11.6642 18.9582 11.6666H56.0415C58.0811 11.6666 59.8277 12.3853 61.2814 13.8226C62.7351 15.26 63.4607 16.9858 63.4582 19V63C63.4582 65.0166 62.7314 66.7436 61.2777 68.181C59.824 69.6183 58.0786 70.3358 56.0415 70.3333H18.9582ZM30.0832 33.6666H44.9165C45.9672 33.6666 46.8486 33.3146 47.5606 32.6106C48.2726 31.9066 48.6273 31.0364 48.6249 30C48.6249 28.9611 48.2688 28.0896 47.5569 27.3856C46.8448 26.6816 45.9647 26.3309 44.9165 26.3333H30.0832C29.0325 26.3333 28.1511 26.6853 27.4391 27.3893C26.7271 28.0933 26.3724 28.9635 26.3748 30C26.3748 31.0389 26.7309 31.9103 27.4429 32.6143C28.1549 33.3183 29.035 33.6691 30.0832 33.6666ZM30.0832 44.6666H44.9165C45.9672 44.6666 46.8486 44.3146 47.5606 43.6106C48.2726 42.9066 48.6273 42.0364 48.6249 41C48.6249 39.9611 48.2688 39.0896 47.5569 38.3856C46.8448 37.6816 45.9647 37.3309 44.9165 37.3333H30.0832C29.0325 37.3333 28.1511 37.6853 27.4391 38.3893C26.7271 39.0933 26.3724 39.9635 26.3748 41C26.3748 42.0389 26.7309 42.9103 27.4429 43.6143C28.1549 44.3183 29.035 44.6691 30.0832 44.6666ZM30.0832 55.6666H44.9165C45.9672 55.6666 46.8486 55.3146 47.5606 54.6106C48.2726 53.9066 48.6273 53.0364 48.6249 52C48.6249 50.9611 48.2688 50.0896 47.5569 49.3856C46.8448 48.6816 45.9647 48.3309 44.9165 48.3333H30.0832C29.0325 48.3333 28.1511 48.6853 27.4391 49.3893C26.7271 50.0933 26.3724 50.9635 26.3748 52C26.3748 53.0389 26.7309 53.9103 27.4429 54.6143C28.1549 55.3183 29.035 55.6691 30.0832 55.6666Z" fill="white"/>
</svg>
